<svg xmlns="http://www.w3.org/2000/svg" width="256" height="256" viewBox="0 0 100 100"><rect width="100" height="100" rx="20" fill="#7d6ee7"></rect><path fill="#fff" d="M38.32 49.61L38.32 49.61Q38.32 46.02 37.23 43.48Q36.14 40.93 34.26 39.30Q32.39 37.68 29.90 36.92Q27.40 36.17 24.55 36.17L24.55 36.17Q22.76 36.17 21.44 36.28Q20.12 36.39 19.00 36.62L19.00 36.62L19.00 63.27Q20.35 63.61 21.89 63.72Q23.43 63.83 25.05 63.83L25.05 63.83Q31.66 63.83 34.99 60.25Q38.32 56.66 38.32 49.61ZM42.97 49.61L42.97 49.61Q42.97 54.20 41.71 57.59Q40.45 60.98 38.13 63.22Q35.80 65.46 32.50 66.55Q29.20 67.64 25.11 67.64L25.11 67.64Q23.32 67.64 21.08 67.50Q18.84 67.36 16.82 66.74L16.82 66.74Q14.47 66.02 14.47 64.17L14.47 64.17L14.47 35.38Q14.47 34.49 14.92 34.01Q15.36 33.54 16.32 33.26L16.32 33.26Q18.05 32.70 20.24 32.53Q22.42 32.36 24.60 32.36L24.60 32.36Q28.69 32.36 32.08 33.45Q35.47 34.54 37.88 36.70Q40.28 38.86 41.63 42.08Q42.97 45.30 42.97 49.61ZM70.36 58.18L70.36 58.18Q69.96 58.46 69.32 58.68Q68.68 58.90 67.89 58.90L67.89 58.90Q67.00 58.90 66.30 58.62Q65.60 58.34 65.32 57.73L65.32 57.73Q62.29 51.46 60.11 46.25Q57.92 41.04 56.58 37.62L56.58 37.62L56.36 37.62Q56.19 41.82 55.99 45.44Q55.80 49.05 55.57 52.49Q55.35 55.94 55.12 59.46Q54.90 62.99 54.68 67.02L54.68 67.02Q54.34 67.14 53.81 67.25Q53.28 67.36 52.66 67.36L52.66 67.36Q51.43 67.36 50.92 66.86Q50.42 66.35 50.42 65.40L50.42 65.40Q50.42 64.84 50.50 62.99Q50.59 61.14 50.76 58.51Q50.92 55.88 51.12 52.69Q51.32 49.50 51.57 46.19Q51.82 42.89 52.07 39.70Q52.32 36.50 52.55 33.87L52.55 33.87Q53.00 33.48 53.84 33.14Q54.68 32.81 55.74 32.81L55.74 32.81Q58.32 32.81 59.32 34.88L59.32 34.88Q60.39 37.06 61.48 39.50Q62.57 41.94 63.66 44.46Q64.76 46.98 65.79 49.44Q66.83 51.90 67.78 54.14L67.78 54.14L68.00 54.14Q69.24 51.18 70.47 48.29Q71.70 45.41 72.88 42.72Q74.05 40.03 75.12 37.68Q76.18 35.33 77.02 33.37L77.02 33.37Q77.52 33.09 78.31 32.95Q79.09 32.81 79.76 32.81L79.76 32.81Q82.40 32.81 82.79 34.60L82.79 34.60Q83.01 35.61 83.29 37.93Q83.57 40.26 83.85 43.28Q84.13 46.30 84.38 49.78Q84.64 53.25 84.86 56.47Q85.08 59.69 85.25 62.40Q85.42 65.12 85.53 66.69L85.53 66.69Q84.52 67.36 83.18 67.36L83.18 67.36Q82.34 67.36 81.70 66.94Q81.05 66.52 80.94 65.40L80.94 65.40Q80.66 61.31 80.44 57.28Q80.21 53.25 80.02 49.61Q79.82 45.97 79.65 42.92Q79.48 39.86 79.37 37.74L79.37 37.74L79.15 37.74Q78.53 39.30 77.72 41.26Q76.91 43.22 75.82 45.69Q74.72 48.15 73.38 51.26Q72.04 54.37 70.36 58.18Z"></path></svg>